<svg width="512" height="512" viewBox="0 0 512 512" fill="none" xmlns="http://www.w3.org/2000/svg">
<g clip-path="url(#clip0_13_87)">
<rect width="512" height="512" fill="transparent"/>
<path d="M256 512C397.385 512 512 397.385 512 256C512 114.615 397.385 0 256 0C114.615 0 0 114.615 0 256C0 397.385 114.615 512 256 512Z" fill="black"/>
<path fill-rule="evenodd" clip-rule="evenodd" d="M76 256C76 206.294 112.631 166 157.818 166C170.875 166 186.961 172.146 201.576 179.005C216.892 186.193 233.295 195.516 247.875 204.19C252.949 207.209 259.051 207.209 264.125 204.19C278.705 195.516 295.108 186.193 310.424 179.005C325.039 172.146 341.125 166 354.182 166C399.369 166 436 206.294 436 256C436 305.706 399.369 346 354.182 346C341.125 346 325.039 339.854 310.424 332.995C295.108 325.806 278.705 316.484 264.125 307.81C259.051 304.791 252.949 304.791 247.875 307.81C233.295 316.484 216.892 325.806 201.576 332.995C186.961 339.854 170.875 346 157.818 346C112.631 346 76 305.706 76 256ZM157.818 202C130.706 202 108.727 226.177 108.727 256C108.727 285.824 130.706 310 157.818 310C163.537 310 174.133 306.735 188.733 299.883C202.632 293.359 217.977 284.671 232.305 276.145C247.094 267.346 264.905 267.346 279.695 276.145C294.023 284.671 309.368 293.359 323.267 299.883C337.867 306.735 348.463 310 354.182 310C381.294 310 403.273 285.824 403.273 256C403.273 226.177 381.294 202 354.182 202C348.463 202 337.867 205.265 323.267 212.117C309.368 218.641 294.023 227.33 279.695 235.855C264.905 244.654 247.094 244.654 232.305 235.855C217.977 227.33 202.632 218.641 188.733 212.117C174.133 205.265 163.537 202 157.818 202Z" fill="white"/>
</g>
<defs>
<clipPath id="clip0_13_87">
<rect width="512" height="512" fill="white"/>
</clipPath>
</defs>
</svg>
