<svg width="512" height="512" viewBox="0 0 512 512" fill="none" xmlns="http://www.w3.org/2000/svg">
<g clip-path="url(#clip0_13_82)">
<rect width="512" height="512" fill="transparent"/>
<path d="M256 512C397.385 512 512 397.385 512 256C512 114.615 397.385 0 256 0C114.615 0 0 114.615 0 256C0 397.385 114.615 512 256 512Z" fill="#F0B90B"/>
<path d="M160.529 256L121.361 295.44L81.9209 256L121.361 216.56L160.529 256ZM256.001 160.528L323.457 227.984L362.897 188.544L295.441 121.36L256.001 81.9199L216.561 121.36L149.377 188.544L188.817 227.984L256.001 160.528ZM390.641 216.56L351.473 256L390.913 295.44L430.081 256L390.641 216.56ZM256.001 351.472L188.545 284.016L149.377 323.456L216.833 390.912L256.001 430.08L295.441 390.64L362.897 323.184L323.457 284.016L256.001 351.472ZM256.001 295.44L295.441 256L256.001 216.56L216.561 256L256.001 295.44Z" fill="white"/>
</g>
<defs>
<clipPath id="clip0_13_82">
<rect width="512" height="512" fill="white"/>
</clipPath>
</defs>
</svg>
